<?xml version="1.0" encoding="utf-8"?>
<!-- Generator: Adobe Illustrator 23.0.1, SVG Export Plug-In . SVG Version: 6.00 Build 0)  -->
<svg version="1.1" id="Capa_1" focusable="false" xmlns="http://www.w3.org/2000/svg" xmlns:xlink="http://www.w3.org/1999/xlink"
	 x="0px" y="0px" viewBox="0 0 640 512" style="enable-background:new 0 0 640 512;" xml:space="preserve">
<g>
	<g>
		<path d="M529.9,80.5c0.2,0.1,0.3,0.2,0.5,0.3l9.3,6.3l8.9,6.8c1.5,1.2,3,2.3,4.4,3.5l4.2,3.7l4.2,3.7c1.4,1.2,2.8,2.4,4.1,3.8
			l8,7.9c2.6,2.6,5.1,5.5,7.6,8.2c2.5,2.7,4.9,5.6,7.2,8.5c2.3,2.9,4.7,5.8,6.8,8.8c15.4,20.6,27.6,43.4,35.6,67.5L575.6,7.8
			C560.7,32.3,545.4,56.5,529.9,80.5z"/>
		<path d="M587.3,148.3c-9.4-10.8-19.3-21.2-30-30.7c-2.6-2.4-5.5-4.6-8.2-6.9l-4.1-3.4c-1.4-1.1-2.9-2.1-4.3-3.2l-8.5-6.4l-8.9-5.9
			c-0.1-0.1-0.3-0.2-0.4-0.3c-8.6,13.4-17.5,26.7-26.2,40.1l-27.1,40.8l-27.5,40.5c-9.3,13.4-18.4,27-27.8,40.3
			c-18.6,26.7-37.3,53.2-56.7,79.3l0,0L634,221l-0.4-1.5C620.9,193.7,605.6,169.7,587.3,148.3z"/>
	</g>
	<path d="M575.3,8.1l58.4,212.7L357.9,332L361,41.6L575.3,8.1 M634.4,221.2L575.8,7.3l0,0L360.4,41l-3.2,292"/>
	<path d="M404.5,39.4c14.8,0.9,29.5,2.9,44,6.3c14.5,3.3,28.7,8.1,42.4,14c3.4,1.5,6.9,2.9,10.2,4.6l10,5.1c3.3,1.7,6.5,3.7,9.7,5.6
		l4.6,2.7c16.4-23.4,33-46.8,50.1-69.8l0-0.1L362.9,40.9C376.7,39.1,390.6,38.8,404.5,39.4z"/>
	<path d="M409.4,250c8.8-13.7,17.9-27.3,26.8-41l27.1-40.8l27.5-40.5c9-13.1,18-26.3,27.2-39.3c-10.3-6.5-20.9-12.4-32-17.4
		c-12.9-6-26.3-11.2-40-15.4c-13.8-4.1-27.8-7.4-42.1-9.7c-14.2-2.3-28.6-3.7-43.2-4.4l-3.2,291.1
		C374.3,304.6,391.8,277.2,409.4,250z"/>
	<g>
		<path d="M294.1,38.7l-49,0.8l-24.5,0.4l-12.3,0.2c-4.2,0.1-8,0-11.8,0.8c-7.6,1.3-14.7,4.8-20.7,9.7c-5.8,5-10.5,11.4-13,18.6
			c-1.4,3.5-2,7.3-2.5,11.1c-0.2,3.7-0.1,7.8-0.1,11.9l0.2,24.5l0,3.7l-3.8,0.2c-18.5,0.8-36.9,4-54.1,10.3
			c-17.2,6.3-33,16-46.1,28.6c-13.1,12.6-23.5,27.9-30,44.8c-6.6,16.9-9.4,35.2-9.8,53.5c-0.4,18.3,2,36.6,8.4,53.4
			c6.3,16.9,16.9,31.8,30.1,44.1c13.2,12.3,29.1,21.5,46.3,27c17.2,5.5,35.6,7.6,54,7.3l5.7-0.1l0,5.7c-0.1,20.8-0.5,42.2-0.4,62.5
			c0.5,18.7,15.8,35.9,34.4,38.7c2.3,0.5,4.6,0.5,7,0.7l7.9,0.1l15.7,0.1l31.4,0.3l62.9,0.5L446,499c10.4,0,21.2,0.3,31.2,0.1
			c9.6-0.5,19.1-4.4,26.2-10.9c7.3-6.4,12.3-15.4,13.8-24.9c0.5-2.4,0.5-4.8,0.7-7.3l0.1-7.8c0.1-5.2,0-10.4-0.1-15.6
			c-0.3-10.4-0.5-20.9-1.9-31c-0.7-5-2-9.8-3.9-14.5c-1.7-4.7-4.2-8.6-7.6-12.1c-6.8-6.9-16.3-11.2-26.1-12.5
			c-9.8-1.3-19.8,1-29.2,5c-9.4,4-18.2,9.6-26.9,15.3l-26.3,17.2l-26.3,17.2c-8.8,5.7-17.8,11.3-27.4,15.9
			c-18.8,9.3-41.7,14-62.2,6.5c-5.1-1.9-9.9-4.5-14.1-7.9c-4.2-3.5-7.7-7.8-10.3-12.5c-5.3-9.4-7.4-21-3.8-31.4
			c3.5-10.5,12.5-18.2,22.2-22.3c9.8-4.3,20.3-6.2,30.7-7.7c10.4-1.4,20.7-3.2,30.4-7c9.6-3.7,18.6-10.1,22.9-19.6l1.1,0.5
			c-4.3,10-13.7,16.7-23.4,20.5c-9.8,4-20.3,5.9-30.7,7.5c-10.3,1.7-20.6,3.7-30,7.9c-9.4,4.1-17.6,11.4-20.7,21.1
			c-3.2,9.6-1.1,20.4,3.9,29.1c2.5,4.4,5.8,8.3,9.7,11.5c3.9,3.1,8.5,5.5,13.3,7.3c9.6,3.4,20.1,4,30.2,2.6
			c10.2-1.4,19.9-5,29.2-9.5c9.3-4.6,18.1-10.2,26.8-16l26.1-17.5l26.1-17.5c8.7-5.8,17.7-11.7,27.5-16c9.8-4.4,20.9-7,32-5.7
			c11,1.3,21.7,6,29.7,14c4,3.9,7.2,9,9.1,14.2c2,5,3.5,10.4,4.3,15.8c1.6,10.7,1.8,21.2,2.2,31.7c0.2,5.3,0.3,10.6,0.3,15.8l0,7.9
			c-0.1,2.8-0.2,5.6-0.7,8.4c-1.7,11.1-7.4,21.6-15.8,29.1c-8.3,7.6-19.3,12.4-30.6,13c-10.9,0.3-21.1,0.1-31.7,0.2l-125.7,0.1
			l-62.9,0.1l-31.4,0.1l-15.7,0l-7.9,0c-2.8-0.1-5.8-0.2-8.6-0.7c-23.2-3.3-42.3-24.3-43.3-47.9c-0.4-21.6-0.2-42.1-0.3-63.2
			l5.7,5.6c-19.3,0.5-39-1.5-57.8-7.4c-18.8-5.9-36.4-15.9-50.9-29.3C32.5,350.8,20.9,334,14,315.4c-7-18.6-9.5-38.5-9-57.9
			c0.5-19.4,3.9-39,11.3-57.2c7.4-18.2,18.9-34.8,33.3-48.1c14.3-13.4,31.5-23.6,49.9-29.9c18.4-6.5,37.8-9.1,57-9.5l-3.8,3.9
			l0.4-24.5c0.1-4.1,0.1-8.1,0.4-12.6c0.6-4.3,1.5-8.7,3.2-12.7c6.3-16.4,21.7-28.7,38.9-30.9c4.3-0.7,8.6-0.5,12.6-0.4l12.3,0.3
			l24.5,0.6l49,1.1L294.1,38.7z"/>
		<path d="M85.8,332.5c-14.6-14.1-24.1-33.2-28-53.4c-3.8-20.1-4.1-41.4,2.1-61.8c6.2-20.3,19.4-38.6,36.8-50.9
			c17.4-12.7,38.9-18.5,59.6-18.9l5.3-0.1l-0.1,5.1l-1.8,103.4c-0.5,34.5-1.1,68.9-2.3,103.4l-0.1,1.6l-1.5-0.1
			c-12.9-0.8-25.8-2.9-37.7-7.7C106.1,348.5,95,341.6,85.8,332.5z M86.6,331.7c8.9,9.1,19.9,16.1,31.9,20.2
			c12,4.1,24.7,5.9,37.4,5.8l-1.6,1.5c-1-34.5-1.4-68.9-1.7-103.4l-1.1-103.4l5.2,5c-19.3,1-38,7.2-53.1,18.5
			c-7.5,5.7-14.3,12.4-19.9,19.9c-5.6,7.6-9.9,16-13.2,24.9c-6.3,17.9-8.7,37.8-7,57.4c0.9,9.8,2.9,19.5,6.8,28.7
			C74,316.1,79.7,324.5,86.6,331.7z"/>
	</g>
	<path d="M634.7,221.7"/>
</g>
</svg>
